# xmcd
#
# Track frame offsets:
#	150
#	9533
#	19361
#	36205
#	48991
#	62610
#	75424
#	86549
#	100109
#	110156
#	121782
#	133101
#	148228
#	157924
#	169699
#	185406
#	199046
#	209358
#	222017
#	234280
#	244889
#	255869
#	265916
#	284333
#	297944
# Disc length: 4145 seconds
# Revision: 1
# Processed by: cddbd v1.5.1PL2 Copyright (c) Steve Scherf et al.
#
# Submitted via: libkcddb 0.3
#
DISCID=5e102f19
DTITLE=Patsy Cline - 25 Greatest Hits
DYEAR=1900
DGENRE=Country
TTITLE0=Back In Baby's Arms
TTITLE1=Blue Moon Of Kentucky
TTITLE2=Faded Love
TTITLE3=I Fall To Pieces
TTITLE4=She's Got You
TTITLE5=Just A Closer Walk With Thee
TTITLE6=If You Got Leaving On Your Mind
TTITLE7=Have You Ever Been Lonely
TTITLE8=Seven Lonely Days
TTITLE9=Sweet Dreams
TTITLE10=Tennessee Waltz
TTITLE11=Wayward Wind
TTITLE12=True Love
TTITLE13=Walking After Midnight
TTITLE14=Why Can't He Be You
TTITLE15=You Belong To Me
TTITLE16=Your Cheating Heart
TTITLE17=Blue
TTITLE18=Crazy
TTITLE19=San Antonio Rose
TTITLE20=South Of The Border
TTITLE21=Strange
TTITLE22=Amazing Grace
TTITLE23=So Wrong
TTITLE24=You're Stronger Than Me
EXTD=
EXTT0=
EXTT1=
EXTT2=
EXTT3=
EXTT4=
EXTT5=
EXTT6=
EXTT7=
EXTT8=
EXTT9=
EXTT10=
EXTT11=
EXTT12=
EXTT13=
EXTT14=
EXTT15=
EXTT16=
EXTT17=
EXTT18=
EXTT19=
EXTT20=
EXTT21=
EXTT22=
EXTT23=
EXTT24=
PLAYORDER=
